<mxfile host="app.diagrams.net" modified="2024-05-13T02:11:50.222Z" agent="Mozilla/5.0 (Macintosh; Intel Mac OS X 10_15_7) AppleWebKit/537.36 (KHTML, like Gecko) Chrome/124.0.0.0 Safari/537.36" etag="4gQwSBGSKO3iNDAiyII2" version="24.3.1" type="github">
  <diagram name="Page-1" id="c7558073-3199-34d8-9f00-42111426c3f3">
    <mxGraphModel dx="446" dy="703" grid="1" gridSize="10" guides="1" tooltips="1" connect="1" arrows="1" fold="1" page="1" pageScale="1" pageWidth="826" pageHeight="1169" background="none" math="0" shadow="0">
      <root>
        <mxCell id="0" />
        <mxCell id="1" parent="0" />
        <mxCell id="71l937Ba5zj9jxayonJb-96" value="PPTK&#xa;PPK" style="whiteSpace=wrap;align=center;verticalAlign=middle;fontStyle=1;strokeWidth=3;fillColor=#d5e8d4;strokeColor=#82b366;" vertex="1" parent="1">
          <mxGeometry x="990" y="231" width="90" height="60" as="geometry" />
        </mxCell>
        <mxCell id="71l937Ba5zj9jxayonJb-97" value="" style="edgeStyle=none;noEdgeStyle=1;strokeColor=#990000;strokeWidth=2;entryX=0;entryY=0.5;entryDx=0;entryDy=0;" edge="1" parent="1" target="71l937Ba5zj9jxayonJb-99">
          <mxGeometry width="100" height="100" relative="1" as="geometry">
            <mxPoint x="1080" y="261" as="sourcePoint" />
            <mxPoint x="1186" y="261" as="targetPoint" />
          </mxGeometry>
        </mxCell>
        <mxCell id="71l937Ba5zj9jxayonJb-98" value="Telaan Staf" style="text;spacingTop=-5;align=center" vertex="1" parent="1">
          <mxGeometry x="1100" y="236" width="70" height="20" as="geometry" />
        </mxCell>
        <mxCell id="71l937Ba5zj9jxayonJb-99" value="KABAN" style="whiteSpace=wrap;align=center;verticalAlign=middle;fontStyle=1;strokeWidth=3;fillColor=#d5e8d4;strokeColor=#82b366;" vertex="1" parent="1">
          <mxGeometry x="1200" y="231" width="90" height="60" as="geometry" />
        </mxCell>
        <mxCell id="71l937Ba5zj9jxayonJb-100" value="&lt;b&gt;Setuju?&lt;/b&gt;" style="rhombus;whiteSpace=wrap;html=1;fillColor=#e1d5e7;strokeColor=#9673a6;" vertex="1" parent="1">
          <mxGeometry x="1205" y="341" width="80" height="80" as="geometry" />
        </mxCell>
        <mxCell id="71l937Ba5zj9jxayonJb-101" value="" style="edgeStyle=elbowEdgeStyle;elbow=horizontal;strokeColor=#990000;strokeWidth=2;exitX=0;exitY=0.5;exitDx=0;exitDy=0;entryX=0.75;entryY=1;entryDx=0;entryDy=0;" edge="1" parent="1" source="71l937Ba5zj9jxayonJb-100" target="71l937Ba5zj9jxayonJb-96">
          <mxGeometry width="100" height="100" relative="1" as="geometry">
            <mxPoint x="746" y="381" as="sourcePoint" />
            <mxPoint x="746" y="130" as="targetPoint" />
            <Array as="points">
              <mxPoint x="1058" y="370" />
            </Array>
          </mxGeometry>
        </mxCell>
        <mxCell id="71l937Ba5zj9jxayonJb-102" value="Tidak" style="text;spacingTop=-5;align=center" vertex="1" parent="1">
          <mxGeometry x="1130" y="391" width="70" height="20" as="geometry" />
        </mxCell>
        <mxCell id="71l937Ba5zj9jxayonJb-103" value="" style="edgeStyle=none;noEdgeStyle=1;strokeColor=#990000;strokeWidth=2;entryX=0.5;entryY=0;entryDx=0;entryDy=0;exitX=0.5;exitY=1;exitDx=0;exitDy=0;" edge="1" parent="1" source="71l937Ba5zj9jxayonJb-99" target="71l937Ba5zj9jxayonJb-100">
          <mxGeometry width="100" height="100" relative="1" as="geometry">
            <mxPoint x="1090" y="271" as="sourcePoint" />
            <mxPoint x="1210" y="271" as="targetPoint" />
          </mxGeometry>
        </mxCell>
        <mxCell id="71l937Ba5zj9jxayonJb-104" value="" style="edgeStyle=none;noEdgeStyle=1;strokeColor=#990000;strokeWidth=2;exitX=0.5;exitY=1;exitDx=0;exitDy=0;entryX=0.5;entryY=0;entryDx=0;entryDy=0;" edge="1" parent="1" source="71l937Ba5zj9jxayonJb-100" target="71l937Ba5zj9jxayonJb-106">
          <mxGeometry width="100" height="100" relative="1" as="geometry">
            <mxPoint x="1255" y="301" as="sourcePoint" />
            <mxPoint x="1400" y="380" as="targetPoint" />
          </mxGeometry>
        </mxCell>
        <mxCell id="71l937Ba5zj9jxayonJb-105" value="Ya" style="text;spacingTop=-5;align=center" vertex="1" parent="1">
          <mxGeometry x="1260" y="441" width="39" height="20" as="geometry" />
        </mxCell>
        <mxCell id="71l937Ba5zj9jxayonJb-106" value="KASUBAG&#xa;KEUANGAN" style="whiteSpace=wrap;align=center;verticalAlign=middle;fontStyle=1;strokeWidth=3;fillColor=#d5e8d4;strokeColor=#82b366;" vertex="1" parent="1">
          <mxGeometry x="1200" y="490" width="90" height="60" as="geometry" />
        </mxCell>
        <mxCell id="71l937Ba5zj9jxayonJb-108" value="KASUBAG&#xa;KEUANGAN" style="whiteSpace=wrap;align=center;verticalAlign=middle;fontStyle=1;strokeWidth=3;fillColor=#d5e8d4;strokeColor=#82b366;" vertex="1" parent="1">
          <mxGeometry x="1200" y="740" width="90" height="60" as="geometry" />
        </mxCell>
        <mxCell id="71l937Ba5zj9jxayonJb-109" value="" style="edgeStyle=elbowEdgeStyle;elbow=horizontal;strokeColor=#3333FF;strokeWidth=2;exitX=0;exitY=0.5;exitDx=0;exitDy=0;entryX=0.25;entryY=1;entryDx=0;entryDy=0;" edge="1" parent="1" source="71l937Ba5zj9jxayonJb-110" target="71l937Ba5zj9jxayonJb-96">
          <mxGeometry width="100" height="100" relative="1" as="geometry">
            <mxPoint x="1215" y="391" as="sourcePoint" />
            <mxPoint x="1045" y="301" as="targetPoint" />
            <Array as="points">
              <mxPoint x="1013" y="420" />
            </Array>
          </mxGeometry>
        </mxCell>
        <mxCell id="71l937Ba5zj9jxayonJb-110" value="&lt;b&gt;Verifikasi&lt;/b&gt;" style="rhombus;whiteSpace=wrap;html=1;fillColor=#e1d5e7;strokeColor=#9673a6;" vertex="1" parent="1">
          <mxGeometry x="1205" y="604" width="80" height="80" as="geometry" />
        </mxCell>
        <mxCell id="71l937Ba5zj9jxayonJb-111" value="" style="edgeStyle=none;noEdgeStyle=1;strokeColor=#990000;strokeWidth=2;entryX=0.5;entryY=0;entryDx=0;entryDy=0;" edge="1" parent="1" target="71l937Ba5zj9jxayonJb-110">
          <mxGeometry width="100" height="100" relative="1" as="geometry">
            <mxPoint x="1245" y="550" as="sourcePoint" />
            <mxPoint x="1255" y="500" as="targetPoint" />
          </mxGeometry>
        </mxCell>
        <mxCell id="71l937Ba5zj9jxayonJb-112" value="Terima" style="text;spacingTop=-5;align=center" vertex="1" parent="1">
          <mxGeometry x="1260" y="700" width="39" height="20" as="geometry" />
        </mxCell>
        <mxCell id="71l937Ba5zj9jxayonJb-113" value="" style="edgeStyle=none;noEdgeStyle=1;strokeColor=#990000;strokeWidth=2;entryX=0.5;entryY=0;entryDx=0;entryDy=0;exitX=0.5;exitY=1;exitDx=0;exitDy=0;" edge="1" parent="1" source="71l937Ba5zj9jxayonJb-110" target="71l937Ba5zj9jxayonJb-108">
          <mxGeometry width="100" height="100" relative="1" as="geometry">
            <mxPoint x="1245" y="690" as="sourcePoint" />
            <mxPoint x="1255" y="614" as="targetPoint" />
          </mxGeometry>
        </mxCell>
        <mxCell id="71l937Ba5zj9jxayonJb-115" value="Ditolak" style="text;spacingTop=-5;align=center" vertex="1" parent="1">
          <mxGeometry x="1115.5" y="620" width="39" height="20" as="geometry" />
        </mxCell>
        <mxCell id="71l937Ba5zj9jxayonJb-117" value="" style="edgeStyle=elbowEdgeStyle;elbow=horizontal;strokeColor=#3333FF;strokeWidth=2;entryX=0;entryY=0.5;entryDx=0;entryDy=0;exitX=0.5;exitY=1;exitDx=0;exitDy=0;" edge="1" parent="1" source="71l937Ba5zj9jxayonJb-96" target="71l937Ba5zj9jxayonJb-106">
          <mxGeometry width="100" height="100" relative="1" as="geometry">
            <mxPoint x="1035" y="320" as="sourcePoint" />
            <mxPoint x="1023" y="301" as="targetPoint" />
            <Array as="points">
              <mxPoint x="1035" y="400" />
            </Array>
          </mxGeometry>
        </mxCell>
        <mxCell id="71l937Ba5zj9jxayonJb-118" value="Hasil PerbaikanÂ &#xa;Telaan Staf" style="text;spacingTop=-5;align=center" vertex="1" parent="1">
          <mxGeometry x="1100" y="481" width="39" height="20" as="geometry" />
        </mxCell>
        <mxCell id="71l937Ba5zj9jxayonJb-119" value="Perbaiki&#xa;Telaan Staf&#xa;" style="text;spacingTop=-5;align=center" vertex="1" parent="1">
          <mxGeometry x="930" y="525" width="39" height="20" as="geometry" />
        </mxCell>
        <mxCell id="71l937Ba5zj9jxayonJb-120" value="&lt;b&gt;Mulai&lt;/b&gt;" style="rounded=1;whiteSpace=wrap;html=1;arcSize=50;fillColor=#ffe6cc;strokeColor=#d79b00;" vertex="1" parent="1">
          <mxGeometry x="860" y="238" width="80" height="46" as="geometry" />
        </mxCell>
        <mxCell id="71l937Ba5zj9jxayonJb-121" value="&lt;b&gt;Selesai&lt;/b&gt;" style="rounded=1;whiteSpace=wrap;html=1;arcSize=50;fillColor=#ffe6cc;strokeColor=#d79b00;" vertex="1" parent="1">
          <mxGeometry x="1350" y="747" width="80" height="46" as="geometry" />
        </mxCell>
        <mxCell id="71l937Ba5zj9jxayonJb-122" value="" style="edgeStyle=elbowEdgeStyle;elbow=horizontal;strokeColor=#990000;strokeWidth=2;exitX=1;exitY=0.5;exitDx=0;exitDy=0;entryX=0;entryY=0.5;entryDx=0;entryDy=0;" edge="1" parent="1" source="71l937Ba5zj9jxayonJb-120" target="71l937Ba5zj9jxayonJb-96">
          <mxGeometry width="100" height="100" relative="1" as="geometry">
            <mxPoint x="1215" y="391" as="sourcePoint" />
            <mxPoint x="1068" y="301" as="targetPoint" />
            <Array as="points">
              <mxPoint x="960" y="261" />
            </Array>
          </mxGeometry>
        </mxCell>
        <mxCell id="71l937Ba5zj9jxayonJb-123" value="" style="edgeStyle=elbowEdgeStyle;elbow=horizontal;strokeColor=#990000;strokeWidth=2;exitX=1;exitY=0.5;exitDx=0;exitDy=0;entryX=0;entryY=0.5;entryDx=0;entryDy=0;" edge="1" parent="1" source="71l937Ba5zj9jxayonJb-108" target="71l937Ba5zj9jxayonJb-121">
          <mxGeometry width="100" height="100" relative="1" as="geometry">
            <mxPoint x="950" y="271" as="sourcePoint" />
            <mxPoint x="1000" y="271" as="targetPoint" />
            <Array as="points" />
          </mxGeometry>
        </mxCell>
      </root>
    </mxGraphModel>
  </diagram>
</mxfile>
